/* XPM */
static char * close_pressed_xpm[] = {
"30 30 5 1",
" 	c None",
".	c #454C59",
"+	c #C7C9CD",
"@	c #636974",
"#	c #646A74",
"..............................",
"..............................",
"..............................",
"..............................",
"..............................",
"..............................",
"..............................",
"..............................",
"..............................",
"..........+@......#+..........",
"..........#+@....#+#..........",
"...........#+@..#+#...........",
"............#+@#+#............",
".............#++#.............",
".............@++#.............",
"............@+##+#............",
"...........@+#..#+#...........",
"..........@+#....#+#..........",
"..........+#......#+..........",
"..............................",
"..............................",
"..............................",
"..............................",
"..............................",
"..............................",
"..............................",
"..............................",
"..............................",
"..............................",
".............................."};
